<svg width="267" height="44" viewBox="0 0 267 44" fill="none" xmlns="http://www.w3.org/2000/svg">
    <path d="M57.796 10.723H68.93l-10.233 32.36h-15.87l-8.338-23.184-8.385 23.232h-15.87L0 10.771h11.133l7.296 23.811 8.764-23.811h14.543l8.765 23.811 7.295-23.86zM105.881 29.318V43.13H95.743v-3.574c-4.737 2.946-10.564 4.057-15.065 4.057-6.916 0-12.222-2.222-12.222-8.597 0-7.39 7.958-9.225 15.207-9.225 4.5 0 8.622.628 12.033 1.352-.285-3.719-3.553-4.685-8.196-4.685-4.737 0-9.238.676-15.491 2.174l-1.422-7.052c5.733-1.304 11.891-2.27 18.808-2.27 11.085-.048 16.391 3.719 16.486 14.007zm-10.138 5.699V32.94c-3.41-.483-7.153-.918-10.564-.918-4.454 0-6.112.58-6.112 2.222 0 1.546 1.327 2.125 5.117 2.125 3.174 0 8.622-.87 11.559-1.352zM137.006 16.132h10.28L134.495 43.13h-14.97l-12.791-27h10.327l9.996 21.3 9.949-21.3zM150.839 7.148h10.138v6.28h-10.138v-6.28zm0 8.984h10.138v26.999h-10.138V16.132zM184.285 15.263c10.896 0 17.481 3.864 18.808 11.93h-10.375c-.853-2.27-3.317-3.816-8.433-3.816-5.685 0-8.717 1.884-8.717 6.279s3.032 6.279 8.717 6.279c5.116 0 7.58-1.546 8.433-3.816h10.375C201.719 40.136 195.181 44 184.285 44c-12.128 0-18.902-4.83-18.902-14.393s6.774-14.344 18.902-14.344z" fill="#000"/>
    <path d="M156.761 16.132h-16.392v6.23h16.392v-6.23zM218.536 8.452c0 1.642-.947 2.801-3.411 2.801h-8.29V1.11h7.722c2.606 0 3.411 1.015 3.411 2.464 0 1.207-.711 1.98-1.706 2.366 1.232.338 2.274 1.063 2.274 2.512zm-8.243-4.782v1.45h3.174c.616 0 1.09 0 1.09-.725s-.426-.725-1.09-.725h-3.174zm3.695 5.072c.474 0 .948 0 .948-.725 0-.724-.426-.724-.948-.724h-3.742v1.449h3.742zM229.953 3.815h-6.774v1.063h6.49v2.656h-6.49v1.063h6.774v2.656h-10.232V1.11h10.232v2.705zM243.076 4.105h-4.216v7.197h-3.458V4.105h-4.217V1.16h11.891v2.946zM252.741 11.253l-.806-1.787h-5.495l-.806 1.787h-3.695l4.785-10.143h4.927l4.785 10.143h-3.695zm-5.117-4.299h3.174l-1.563-3.429-1.611 3.43z" fill="#000"/>
</svg>
